<?xml version="1.0" encoding="UTF-8" standalone="no"?>
<!-- Created with Inkscape (http://www.inkscape.org/) -->

<svg
   xmlns:dc="http://purl.org/dc/elements/1.1/"
   xmlns:cc="http://creativecommons.org/ns#"
   xmlns:rdf="http://www.w3.org/1999/02/22-rdf-syntax-ns#"
   xmlns:svg="http://www.w3.org/2000/svg"
   xmlns="http://www.w3.org/2000/svg"
   xmlns:sodipodi="http://sodipodi.sourceforge.net/DTD/sodipodi-0.dtd"
   xmlns:inkscape="http://www.inkscape.org/namespaces/inkscape"
   width="444.22"
   height="415.9292"
   id="svg2"
   version="1.1"
   inkscape:version="0.48.4 r9939"
   sodipodi:docname="drawing.png">
  <defs
     id="defs4">
    <inkscape:path-effect
       effect="spiro"
       id="path-effect5581"
       is_visible="true" />
    <inkscape:path-effect
       effect="spiro"
       id="path-effect5540"
       is_visible="true" />
    <inkscape:path-effect
       effect="spiro"
       id="path-effect5536"
       is_visible="true" />
    <inkscape:path-effect
       effect="spiro"
       id="path-effect5520"
       is_visible="true" />
    <inkscape:path-effect
       effect="spiro"
       id="path-effect5516"
       is_visible="true" />
    <inkscape:path-effect
       effect="spiro"
       id="path-effect5512"
       is_visible="true" />
    <inkscape:path-effect
       effect="spiro"
       id="path-effect5508"
       is_visible="true" />
    <inkscape:path-effect
       effect="spiro"
       id="path-effect5504"
       is_visible="true" />
    <inkscape:path-effect
       effect="spiro"
       id="path-effect5500"
       is_visible="true" />
    <inkscape:path-effect
       effect="spiro"
       id="path-effect5496"
       is_visible="true" />
    <inkscape:path-effect
       effect="spiro"
       id="path-effect5492"
       is_visible="true" />
    <marker
       inkscape:stockid="Arrow2Mend"
       orient="auto"
       refY="0"
       refX="0"
       id="Arrow2Mend"
       style="overflow:visible">
      <path
         id="path4080"
         style="fill-rule:evenodd;stroke-width:0.625;stroke-linejoin:round"
         d="M 8.7185878,4.0337352 -2.2072895,0.01601326 8.7185884,-4.0017078 c -1.7454984,2.3720609 -1.7354408,5.6174519 -6e-7,8.035443 z"
         transform="scale(-0.6,-0.6)"
         inkscape:connector-curvature="0" />
    </marker>
    <inkscape:path-effect
       effect="spiro"
       id="path-effect4047"
       is_visible="true" />
  </defs>
  <sodipodi:namedview
     id="base"
     pagecolor="#ffffff"
     bordercolor="#666666"
     borderopacity="1.0"
     inkscape:pageopacity="0.0"
     inkscape:pageshadow="2"
     inkscape:zoom="0.7"
     inkscape:cx="238.51231"
     inkscape:cy="195.06439"
     inkscape:document-units="px"
     inkscape:current-layer="layer1"
     showgrid="false"
     inkscape:object-paths="true"
     inkscape:snap-intersection-paths="false"
     inkscape:object-nodes="false"
     inkscape:snap-smooth-nodes="false"
     inkscape:snap-midpoints="false"
     inkscape:snap-object-midpoints="false"
     inkscape:snap-nodes="true"
     fit-margin-top="0"
     fit-margin-left="0"
     fit-margin-right="0"
     fit-margin-bottom="0"
     inkscape:window-width="1360"
     inkscape:window-height="706"
     inkscape:window-x="-8"
     inkscape:window-y="-8"
     inkscape:window-maximized="1" />
  <metadata
     id="metadata7">
    <rdf:RDF>
      <cc:Work
         rdf:about="">
        <dc:format>image/svg+xml</dc:format>
        <dc:type
           rdf:resource="http://purl.org/dc/dcmitype/StillImage" />
        <dc:title></dc:title>
      </cc:Work>
    </rdf:RDF>
  </metadata>
  <g
     inkscape:label="Layer 1"
     inkscape:groupmode="layer"
     id="layer1"
     transform="translate(-151.3428,-36.65625)">
    <rect
       style="fill:#ffff00;fill-opacity:1;stroke:#000000;stroke-width:0.42718023;stroke-linecap:round;stroke-linejoin:round;stroke-miterlimit:4;stroke-opacity:1;stroke-dasharray:none;stroke-dashoffset:0"
       id="rect2987"
       width="62.629459"
       height="11.428576"
       x="317.1879"
       y="-58.433609"
       transform="scale(1,-1)" />
    <rect
       y="37.158875"
       x="418.92905"
       height="62.629459"
       width="62.629459"
       id="rect2989"
       style="fill:none;stroke:#000000;stroke-width:1;stroke-linecap:round;stroke-linejoin:round;stroke-miterlimit:4;stroke-opacity:1;stroke-dasharray:4, 4;stroke-dashoffset:0" />
    <rect
       y="110.90001"
       x="317.1879"
       height="62.629459"
       width="62.629459"
       id="rect2997"
       style="fill:#ff6600;fill-opacity:1;stroke:#000000;stroke-width:1;stroke-linecap:round;stroke-linejoin:round;stroke-miterlimit:4;stroke-opacity:1;stroke-dasharray:4, 4;stroke-dashoffset:0" />
    <rect
       style="fill:#ff6600;fill-opacity:1;stroke:#000000;stroke-width:1;stroke-linecap:round;stroke-linejoin:round;stroke-miterlimit:4;stroke-opacity:1;stroke-dasharray:4, 4;stroke-dashoffset:0"
       id="rect3007"
       width="62.629459"
       height="62.629459"
       x="317.1879"
       y="183.631" />
    <rect
       y="256.36197"
       x="317.1879"
       height="62.629459"
       width="62.629459"
       id="rect3017"
       style="fill:#ff6600;fill-opacity:1;stroke:#000000;stroke-width:1;stroke-linecap:round;stroke-linejoin:round;stroke-miterlimit:4;stroke-opacity:1;stroke-dasharray:4, 4;stroke-dashoffset:0" />
    <rect
       style="fill:#ff6600;fill-opacity:1;stroke:#000000;stroke-width:1;stroke-linecap:round;stroke-linejoin:round;stroke-miterlimit:4;stroke-opacity:1;stroke-dasharray:4, 4;stroke-dashoffset:0"
       id="rect3027"
       width="62.629459"
       height="62.629459"
       x="317.1879"
       y="333.13358" />
    <rect
       style="fill:#aa4400;fill-opacity:1;fill-rule:nonzero;stroke:#000000;stroke-width:1.03426242;stroke-linecap:round;stroke-linejoin:round;stroke-miterlimit:4;stroke-opacity:1;stroke-dasharray:6.2055742, 1.03426237;stroke-dashoffset:0"
       id="rect3815"
       width="62.629459"
       height="41.354721"
       x="317.1879"
       y="58.433609" />
    <rect
       style="fill:#00ffff;fill-opacity:1;fill-rule:nonzero;stroke:#000000;stroke-width:0.89999998;stroke-linecap:round;stroke-linejoin:round;stroke-miterlimit:4;stroke-opacity:1;stroke-dasharray:5.39999986, 0.89999998;stroke-dashoffset:0"
       id="rect3819"
       width="62.629459"
       height="9.8461628"
       x="317.1879"
       y="37.158875" />
    <g
       style="font-size:236.35133362px;font-style:normal;font-variant:normal;font-weight:normal;font-stretch:normal;line-height:125%;letter-spacing:0px;word-spacing:0px;fill:#000000;fill-opacity:1;stroke:none;font-family:Arial;-inkscape-font-specification:Arial"
       id="text4001"
       transform="matrix(0.51372008,0,0,1.6668088,156.45737,-203.64263)">
      <path
         d="m 261.75066,355.78601 0,4.0392 c -12.84861,-1.7696 -23.29284,-6.9821 -31.33271,-15.6375 -8.04,-8.65547 -12.05997,-18.25339 -12.05992,-28.79378 -5e-5,-5.53948 0.88472,-11.98297 2.65434,-19.33049 1.7695,-7.34749 2.65427,-13.06008 2.65433,-17.13778 -6e-5,-5.53945 -2.32741,-10.71347 -6.98206,-15.5221 -4.65475,-4.80853 -11.09824,-7.75137 -19.33049,-8.82855 l 0,-4.73164 c 8.23225,-1.07706 14.67574,-4.00068 19.33049,-8.77085 4.65465,-4.77004 6.982,-9.9633 6.98206,-15.5798 -6e-5,-4.07759 -0.88483,-9.77094 -2.65433,-17.08008 -1.76962,-7.30893 -2.65439,-13.77166 -2.65434,-19.38819 -5e-5,-10.46334 4.01992,-20.04203 12.05992,-28.73608 8.03987,-8.69375 18.4841,-13.88702 31.33271,-15.5798 l 0,4.03921 c -9.00175,2.1544 -15.59912,5.67428 -19.79212,10.55964 -4.19315,4.88566 -6.28969,10.25203 -6.28962,16.09913 -7e-5,4.53943 0.86547,10.52129 2.59663,17.94562 1.73102,7.42455 2.59656,13.75264 2.59664,18.98427 -8e-5,7.77076 -2.84676,15.3106 -8.54004,22.61956 -5.69342,7.30911 -14.19499,12.964 -25.50471,16.96468 11.07891,4.07772 19.52277,9.84801 25.3316,17.31088 5.80869,7.46295 8.71307,15.07974 8.71315,22.85038 -8e-5,5.23174 -0.86562,11.55983 -2.59664,18.98427 -1.73116,7.42444 -2.5967,13.40631 -2.59663,17.94562 -7e-5,5.84721 2.09647,11.21358 6.28962,16.09913 4.193,4.88548 10.79037,8.44382 19.79212,10.67505 z"
         style="font-family:Times New Roman;-inkscape-font-specification:Times New Roman"
         id="path4006"
         inkscape:connector-curvature="0" />
    </g>
    <text
       xml:space="preserve"
       style="font-size:20px;font-style:normal;font-variant:normal;font-weight:normal;font-stretch:normal;line-height:125%;letter-spacing:0px;word-spacing:0px;fill:#000000;fill-opacity:1;stroke:none;font-family:Arial;-inkscape-font-specification:Arial"
       x="150.51273"
       y="221.00664"
       id="text4008"
       sodipodi:linespacing="125%"><tspan
         sodipodi:role="line"
         id="tspan4010"
         x="150.51273"
         y="221.00664">512 blocks</tspan></text>
    <g
       transform="matrix(0,-0.97678553,1.0237662,0,0,0)"
       style="font-size:83.97830963px;font-style:normal;font-variant:normal;font-weight:normal;font-stretch:normal;line-height:125%;letter-spacing:0px;word-spacing:0px;fill:#000000;fill-opacity:1;stroke:none;font-family:Times New Roman;-inkscape-font-specification:Times New Roman"
       id="text4012">
      <path
         d="m -415.20385,377.56789 0,1.43518 c -4.56526,-0.62876 -8.27621,-2.48082 -11.13287,-5.55618 -2.8567,-3.07539 -4.28505,-6.48564 -4.28503,-10.23076 -2e-5,-1.96824 0.31436,-4.25769 0.94312,-6.86834 0.62872,-2.61065 0.94309,-4.64039 0.94312,-6.08925 -3e-5,-1.96823 -0.82696,-3.80662 -2.48081,-5.51518 -1.65389,-1.70852 -3.94333,-2.75415 -6.86834,-3.13688 l 0,-1.68121 c 2.92501,-0.38269 5.21445,-1.42148 6.86834,-3.11638 1.65385,-1.69485 2.48078,-3.54007 2.48081,-5.53568 -3e-5,-1.44881 -0.3144,-3.47173 -0.94312,-6.06874 -0.62876,-2.59695 -0.94314,-4.89323 -0.94312,-6.88885 -2e-5,-3.71774 1.42833,-7.12116 4.28503,-10.21025 2.85666,-3.08899 6.56761,-4.93422 11.13287,-5.53568 l 0,1.43517 c -3.19843,0.76549 -5.54255,2.01614 -7.03237,3.75196 -1.48987,1.73593 -2.2348,3.64267 -2.23477,5.72021 -3e-5,1.61291 0.30751,3.73833 0.92261,6.37628 0.61505,2.63803 0.92259,4.88647 0.92262,6.74533 -3e-5,2.76103 -1.01149,5.44003 -3.03438,8.03698 -2.02293,2.59701 -5.04364,4.60626 -9.06211,6.02774 3.93646,1.44887 6.93666,3.49912 9.00061,6.15076 2.06389,2.65167 3.09585,5.358 3.09588,8.119 -3e-5,1.85889 -0.30757,4.10733 -0.92262,6.74532 -0.6151,2.63799 -0.92264,4.76342 -0.92261,6.37629 -3e-5,2.07758 0.7449,3.98431 2.23477,5.7202 1.48982,1.73586 3.83394,3.00018 7.03237,3.79296 z"
         id="path4017"
         inkscape:connector-curvature="0" />
    </g>
    <text
       xml:space="preserve"
       style="font-size:20px;font-style:normal;font-variant:normal;font-weight:normal;font-stretch:normal;line-height:125%;letter-spacing:0px;word-spacing:0px;fill:#000000;fill-opacity:1;stroke:none;font-family:Arial;-inkscape-font-specification:Arial"
       x="295.9747"
       y="452.33154"
       id="text4019"
       sodipodi:linespacing="125%"><tspan
         sodipodi:role="line"
         id="tspan4021"
         x="295.9747"
         y="452.33154">32 file tables</tspan></text>
    <text
       xml:space="preserve"
       style="font-size:10px;font-style:normal;font-variant:normal;font-weight:normal;font-stretch:normal;line-height:125%;letter-spacing:0px;word-spacing:0px;fill:#000000;fill-opacity:1;stroke:none;font-family:Arial;-inkscape-font-specification:Arial"
       x="339.01785"
       y="55.594322"
       id="text4027"
       sodipodi:linespacing="125%"><tspan
         sodipodi:role="line"
         id="tspan4029"
         x="339.01785"
         y="55.594322">free</tspan></text>
    <text
       xml:space="preserve"
       style="font-size:20px;font-style:normal;font-variant:normal;font-weight:normal;font-stretch:normal;line-height:125%;letter-spacing:0px;word-spacing:0px;fill:#000000;fill-opacity:1;stroke:none;font-family:Arial;-inkscape-font-specification:Arial"
       x="332.18701"
       y="45.217342"
       id="text4031"
       sodipodi:linespacing="125%"><tspan
         sodipodi:role="line"
         id="tspan4033"
         x="332.18701"
         y="45.217342"
         style="font-size:10px">last file</tspan></text>
    <path
       style="fill:none;stroke:#000000;stroke-width:1px;stroke-linecap:butt;stroke-linejoin:miter;stroke-opacity:1;marker-start:none;marker-end:url(#Arrow2Mend)"
       d="m 379.81736,41.199484 10.10152,6.060915 c 7.19051,12.261039 11.0668,26.444758 11.11168,40.65864 0.0433,13.703791 -3.46954,27.403761 -10.10152,39.395951 -1.75595,1.81522 -4.08396,3.06876 -6.566,3.53553 -1.49773,0.28166 -3.04795,0.28166 -4.54568,0"
       id="path4045"
       inkscape:path-effect="#path-effect4047"
       inkscape:original-d="m 379.81736,41.199484 c 3.2599,2.137059 6.93212,3.797057 10.10152,6.060915 5.4931,8.172414 12.96521,16.319114 11.11168,40.65864 -1.09445,13.156291 -0.31516,29.609581 -10.10152,39.395951 -1.51276,3.17812 -3.3374,2.79026 -6.566,3.53553 -1.18822,0.29706 -3.40543,0 -4.54568,0"
       inkscape:connector-curvature="0"
       sodipodi:nodetypes="cccccc" />
    <rect
       style="fill:#aa4400;fill-opacity:1;fill-rule:nonzero;stroke:#000000;stroke-width:0.42718023;stroke-linecap:round;stroke-linejoin:round;stroke-miterlimit:4;stroke-opacity:1;stroke-dasharray:none;stroke-dashoffset:0"
       id="rect5411"
       width="62.629459"
       height="20.892857"
       x="317.1879"
       y="111.11218" />
    <rect
       style="fill:#ffff00;fill-opacity:1;fill-rule:nonzero;stroke:#000000;stroke-width:0.42718023;stroke-linecap:round;stroke-linejoin:round;stroke-miterlimit:4;stroke-opacity:1;stroke-dasharray:none;stroke-dashoffset:0"
       id="rect5413"
       width="61.915649"
       height="10.56045"
       x="419.64285"
       y="37.158875" />
    <rect
       style="fill:none;stroke:#000000;stroke-width:1;stroke-linecap:round;stroke-linejoin:round;stroke-miterlimit:4;stroke-opacity:1;stroke-dasharray:4, 4;stroke-dashoffset:0"
       id="rect5438"
       width="62.629459"
       height="62.629459"
       x="508.83261"
       y="37.158875" />
    <rect
       y="37.158875"
       x="509.54642"
       height="10.56045"
       width="61.915649"
       id="rect5440"
       style="fill:#ffff00;fill-opacity:1;fill-rule:nonzero;stroke:#000000;stroke-width:0.42718023;stroke-linecap:round;stroke-linejoin:round;stroke-miterlimit:4;stroke-opacity:1;stroke-dasharray:none;stroke-dashoffset:0" />
    <rect
       style="fill:none;stroke:#000000;stroke-width:1;stroke-linecap:round;stroke-linejoin:round;stroke-miterlimit:4;stroke-opacity:1;stroke-dasharray:4, 4;stroke-dashoffset:0"
       id="rect5442"
       width="62.629459"
       height="62.629459"
       x="418.92905"
       y="110.90001" />
    <rect
       y="110.90001"
       x="419.64285"
       height="10.56045"
       width="61.915649"
       id="rect5444"
       style="fill:#ffff00;fill-opacity:1;fill-rule:nonzero;stroke:#000000;stroke-width:0.42718023;stroke-linecap:round;stroke-linejoin:round;stroke-miterlimit:4;stroke-opacity:1;stroke-dasharray:none;stroke-dashoffset:0" />
    <rect
       y="110.90001"
       x="508.83261"
       height="62.629459"
       width="62.629459"
       id="rect5446"
       style="fill:none;stroke:#000000;stroke-width:1;stroke-linecap:round;stroke-linejoin:round;stroke-miterlimit:4;stroke-opacity:1;stroke-dasharray:4, 4;stroke-dashoffset:0" />
    <rect
       style="fill:#ffff00;fill-opacity:1;fill-rule:nonzero;stroke:#000000;stroke-width:0.42718023;stroke-linecap:round;stroke-linejoin:round;stroke-miterlimit:4;stroke-opacity:1;stroke-dasharray:none;stroke-dashoffset:0"
       id="rect5448"
       width="61.915649"
       height="10.56045"
       x="509.54642"
       y="110.90001" />
    <rect
       style="fill:none;stroke:#000000;stroke-width:1;stroke-linecap:round;stroke-linejoin:round;stroke-miterlimit:4;stroke-opacity:1;stroke-dasharray:4, 4;stroke-dashoffset:0"
       id="rect5466"
       width="62.629459"
       height="62.629459"
       x="418.92905"
       y="183.631" />
    <rect
       y="183.631"
       x="419.64285"
       height="10.56045"
       width="61.915649"
       id="rect5468"
       style="fill:#ffff00;fill-opacity:1;fill-rule:nonzero;stroke:#000000;stroke-width:0.42718023;stroke-linecap:round;stroke-linejoin:round;stroke-miterlimit:4;stroke-opacity:1;stroke-dasharray:none;stroke-dashoffset:0" />
    <rect
       y="183.631"
       x="508.83261"
       height="62.629459"
       width="62.629459"
       id="rect5470"
       style="fill:none;stroke:#000000;stroke-width:1;stroke-linecap:round;stroke-linejoin:round;stroke-miterlimit:4;stroke-opacity:1;stroke-dasharray:4, 4;stroke-dashoffset:0" />
    <rect
       style="fill:#ffff00;fill-opacity:1;fill-rule:nonzero;stroke:#000000;stroke-width:0.42718023;stroke-linecap:round;stroke-linejoin:round;stroke-miterlimit:4;stroke-opacity:1;stroke-dasharray:none;stroke-dashoffset:0"
       id="rect5472"
       width="61.915649"
       height="10.56045"
       x="509.54642"
       y="183.631" />
    <rect
       y="257.37213"
       x="418.92905"
       height="62.629459"
       width="62.629459"
       id="rect5474"
       style="fill:none;stroke:#000000;stroke-width:1;stroke-linecap:round;stroke-linejoin:round;stroke-miterlimit:4;stroke-opacity:1;stroke-dasharray:4, 4;stroke-dashoffset:0" />
    <rect
       style="fill:#ffff00;fill-opacity:1;fill-rule:nonzero;stroke:#000000;stroke-width:0.42718023;stroke-linecap:round;stroke-linejoin:round;stroke-miterlimit:4;stroke-opacity:1;stroke-dasharray:none;stroke-dashoffset:0"
       id="rect5476"
       width="61.915649"
       height="10.56045"
       x="419.64285"
       y="257.37213" />
    <rect
       style="fill:none;stroke:#000000;stroke-width:1;stroke-linecap:round;stroke-linejoin:round;stroke-miterlimit:4;stroke-opacity:1;stroke-dasharray:4, 4;stroke-dashoffset:0"
       id="rect5478"
       width="62.629459"
       height="62.629459"
       x="508.83261"
       y="257.37213" />
    <rect
       y="257.37213"
       x="509.54642"
       height="10.56045"
       width="61.915649"
       id="rect5480"
       style="fill:#ffff00;fill-opacity:1;fill-rule:nonzero;stroke:#000000;stroke-width:0.42718023;stroke-linecap:round;stroke-linejoin:round;stroke-miterlimit:4;stroke-opacity:1;stroke-dasharray:none;stroke-dashoffset:0" />
    <rect
       style="fill:none;stroke:#000000;stroke-width:1;stroke-linecap:round;stroke-linejoin:round;stroke-miterlimit:4;stroke-opacity:1;stroke-dasharray:4, 4;stroke-dashoffset:0"
       id="rect5482"
       width="62.629459"
       height="62.629459"
       x="418.92905"
       y="333.13358" />
    <rect
       y="333.13358"
       x="419.64285"
       height="10.56045"
       width="61.915649"
       id="rect5484"
       style="fill:#ffff00;fill-opacity:1;fill-rule:nonzero;stroke:#000000;stroke-width:0.42718023;stroke-linecap:round;stroke-linejoin:round;stroke-miterlimit:4;stroke-opacity:1;stroke-dasharray:none;stroke-dashoffset:0" />
    <rect
       y="333.13358"
       x="508.83261"
       height="62.629459"
       width="62.629459"
       id="rect5486"
       style="fill:none;stroke:#000000;stroke-width:1;stroke-linecap:round;stroke-linejoin:round;stroke-miterlimit:4;stroke-opacity:1;stroke-dasharray:4, 4;stroke-dashoffset:0" />
    <rect
       style="fill:#ffff00;fill-opacity:1;fill-rule:nonzero;stroke:#000000;stroke-width:0.42718023;stroke-linecap:round;stroke-linejoin:round;stroke-miterlimit:4;stroke-opacity:1;stroke-dasharray:none;stroke-dashoffset:0"
       id="rect5488"
       width="61.915649"
       height="10.56045"
       x="509.54642"
       y="333.13358" />
    <path
       style="fill:none;stroke:#000000;stroke-width:1px;stroke-linecap:butt;stroke-linejoin:miter;stroke-opacity:1"
       d="m 379.81736,51.30101 c 10.09613,2.763078 21.2851,1.271215 30.30457,-4.04061 3.25533,-1.917157 6.23182,-4.306924 8.80712,-7.071068"
       id="path5490"
       inkscape:path-effect="#path-effect5492"
       inkscape:original-d="m 379.81736,51.30101 c 10.60881,0.304998 21.10551,0.558923 30.30457,-4.04061 5.61021,-2.805104 1.51253,-7.071068 8.80712,-7.071068"
       inkscape:connector-curvature="0" />
    <path
       style="fill:none;stroke:#000000;stroke-width:1px;stroke-linecap:butt;stroke-linejoin:miter;stroke-opacity:1"
       d="m 481.55851,42.209637 27.2741,0"
       id="path5494"
       inkscape:path-effect="#path-effect5496"
       inkscape:original-d="m 481.55851,42.209637 c 7.52525,0 22.89081,0 27.2741,0"
       inkscape:connector-curvature="0" />
    <path
       style="fill:none;stroke:#000000;stroke-width:1px;stroke-linecap:butt;stroke-linejoin:miter;stroke-opacity:1"
       d="m 481.5585,118.98123 27.27411,-3.03046"
       id="path5502"
       inkscape:path-effect="#path-effect5504"
       inkscape:original-d="m 481.5585,118.98123 c 9.79119,1.92027 18.11592,-3.03046 27.27411,-3.03046"
       inkscape:connector-curvature="0" />
    <path
       style="fill:none;stroke:#000000;stroke-width:1px;stroke-linecap:butt;stroke-linejoin:miter;stroke-opacity:1"
       d="m 481.55851,189.18683 27.2741,-0.25254"
       id="path5510"
       inkscape:path-effect="#path-effect5512"
       inkscape:original-d="m 481.55851,189.18683 c 9.14437,0.31804 18.20414,-0.25254 27.2741,-0.25254"
       inkscape:connector-curvature="0" />
    <path
       style="fill:none;stroke:#000000;stroke-width:1px;stroke-linecap:butt;stroke-linejoin:miter;stroke-opacity:1"
       d="m 571.46207,42.362182 c 3.45551,-1.004163 7.21616,-0.929949 10.62936,0.209763 3.4132,1.139712 6.46396,3.339919 8.62286,6.218808 1.90772,2.543934 3.1089,5.573956 3.74003,8.69047 0.63113,3.116514 0.70812,6.324441 0.51197,9.498163 -0.39231,6.347445 -1.8643,12.599383 -2.10915,18.954224 -0.13752,3.569228 0.11348,7.144212 0,10.714286 -0.16766,5.274724 -1.21334,10.709164 -4.28571,15.000004 -2.11244,2.95022 -5.14271,5.24109 -8.57143,6.42857 -2.72696,0.94444 -5.69196,1.19249 -8.53793,0.71428"
       id="path5514"
       inkscape:path-effect="#path-effect5516"
       inkscape:original-d="m 571.46207,42.362182 c 1.42301,0.0873 15.80977,1.264901 19.25222,6.428571 5.23347,7.850214 5.26134,27.787397 2.14285,37.142857 -1.07143,3.214286 1.07143,7.5 0,10.714286 -1.47049,4.411474 -1.20864,11.922934 -4.28571,15.000004 -2.24784,2.24784 -4.73411,4.50991 -8.57143,6.42857 -2.39389,1.19694 -5.99951,-0.5854 -8.53793,0.71428"
       inkscape:connector-curvature="0" />
    <path
       style="fill:none;stroke:#000000;stroke-width:1px;stroke-linecap:butt;stroke-linejoin:miter;stroke-opacity:1"
       d="m 418.92905,117.36218 c -3.97517,-1.23406 -8.46749,-0.68743 -12.03073,1.46391 -3.56324,2.15133 -6.13909,5.87217 -6.89832,9.96466 -0.88819,4.78762 0.61713,9.66162 2.14286,14.28572 5.15716,15.62999 10.75552,31.1144 16.78619,46.42857"
       id="path5518"
       inkscape:path-effect="#path-effect5520"
       inkscape:original-d="m 418.92905,117.36218 c -5.80039,2.80084 -16.57485,4.36598 -18.92905,11.42857 -1.64549,4.93649 2.14286,9.86403 2.14286,14.28572 0,17.31285 -3.80927,46.42857 16.78619,46.42857"
       inkscape:connector-curvature="0" />
    <text
       xml:space="preserve"
       style="font-size:11px;font-style:normal;font-variant:normal;font-weight:normal;font-stretch:normal;line-height:125%;letter-spacing:0px;word-spacing:0px;fill:#000000;fill-opacity:1;stroke:none;font-family:Arial;-inkscape-font-specification:Arial"
       x="536.56158"
       y="192.51534"
       id="text5522"
       sodipodi:linespacing="125%"><tspan
         sodipodi:role="line"
         id="tspan5524"
         x="536.56158"
         y="192.51534">0</tspan></text>
    <path
       style="fill:none;stroke:#000000;stroke-width:1px;stroke-linecap:butt;stroke-linejoin:miter;stroke-opacity:1"
       d="m 351.53309,132.00504 c -0.48284,-0.57033 -0.81194,-1.26958 -0.94373,-2.00514 -0.13179,-0.73555 -0.0659,-1.50557 0.18886,-2.20806 0.25479,-0.70249 0.69786,-1.33569 1.27054,-1.81574 0.57268,-0.48005 1.27352,-0.80575 2.00971,-0.93395 1.11683,-0.19449 2.27823,0.0666 3.29853,0.56069 1.0203,0.49409 1.9158,1.21073 2.76238,1.96469 5.76471,5.13402 9.54152,12.11686 12.62691,19.1929 2.62458,6.01922 4.83539,12.21552 7.57614,18.18274 1.5416,3.35641 3.25158,6.64215 4.54569,10.10153 2.70092,7.22 3.51702,14.9811 4.5009,22.62671 0.98389,7.64561 2.19959,15.40725 5.60063,22.32507 1.80147,3.66424 4.22136,7.11367 5.05076,11.11168 0.45328,2.18499 0.40735,4.43739 0.52536,6.66577 0.11801,2.22839 0.42128,4.50997 1.49494,6.46622 0.81111,1.47788 2.01901,2.6919 3.03046,4.04061 1.53801,2.05087 2.61389,4.40223 3.84599,6.65022 1.23211,2.24799 2.67597,4.4568 4.74031,5.97668 1.53378,1.12925 3.37594,1.83525 5.27158,2.02031"
       id="path5534"
       inkscape:path-effect="#path-effect5536"
       inkscape:original-d="m 351.53309,132.00504 c 0.84179,-2.32097 1.40759,-4.76152 2.52538,-6.96289 0.52443,-1.03282 5.62729,2.33954 6.06091,2.52538 7.73807,3.31631 9.39364,12.26446 12.62691,19.1929 2.82151,6.04609 5.18177,11.95737 7.57614,18.18274 1.29155,3.35801 3.66603,6.58289 4.54569,10.10153 3.72707,14.9083 6.41255,30.19587 10.10153,44.95178 0.97331,3.89327 3.81299,7.39837 5.05076,11.11168 1.36018,4.08055 0.60778,8.89443 2.0203,13.13199 0.46303,1.38909 2.36872,2.71712 3.03046,4.04061 2.6037,5.2074 3.20335,10.83259 8.5863,12.6269 3.59836,1.19946 3.15187,2.02031 5.27158,2.02031"
       inkscape:connector-curvature="0" />
    <path
       style="fill:none;stroke:#000000;stroke-width:1px;stroke-linecap:butt;stroke-linejoin:miter;stroke-opacity:1"
       d="m 481.5585,262.92797 c 9.37736,11.47618 14.1059,26.64431 12.91117,41.41625 -0.32766,4.05131 -1.0724,8.20132 0,12.12183 0.65923,2.41004 1.96998,4.58034 3.21034,6.74929 1.24037,2.16895 2.44332,4.42261 2.85058,6.88777 0.22139,1.34007 0.20206,2.71661 0.50507,4.04061 0.4067,1.77709 1.4053,3.4134 2.79975,4.5877 1.39445,1.1743 3.17682,1.8799 4.9972,1.97829"
       id="path5538"
       inkscape:path-effect="#path-effect5540"
       inkscape:original-d="m 481.5585,262.92797 c 13.94435,4.37092 12.91117,27.15337 12.91117,41.41625 0,2.93282 -1.26576,9.59031 0,12.12183 2.1862,4.3724 3.78559,9.08641 6.06092,13.63706 0.5386,1.07722 0.11749,2.87785 0.50507,4.04061 0.99655,2.98965 4.27708,6.56599 7.79695,6.56599"
       inkscape:connector-curvature="0" />
    <text
       xml:space="preserve"
       style="font-size:11px;font-style:normal;font-variant:normal;font-weight:normal;font-stretch:normal;line-height:125%;letter-spacing:0px;word-spacing:0px;fill:#000000;fill-opacity:1;stroke:none;font-family:Arial;-inkscape-font-specification:Arial"
       x="444.11887"
       y="342.31958"
       id="text5522-1"
       sodipodi:linespacing="125%"><tspan
         sodipodi:role="line"
         id="tspan5524-7"
         x="444.11887"
         y="342.31958">0</tspan></text>
    <path
       style="fill:none;stroke:#000000;stroke-width:1px;stroke-linecap:butt;stroke-linejoin:miter;stroke-opacity:1"
       d="m 508.83261,342.00504 c -7.75176,3.30115 -16.89445,3.16813 -24.54689,-0.35714 -0.93249,-0.42957 -1.84313,-0.90659 -2.72721,-1.42858"
       id="path5579"
       inkscape:path-effect="#path-effect5581"
       inkscape:original-d="m 508.83261,342.00504 c -4.14867,-1.76445 -21.59924,1.11668 -24.54689,-0.35714 -1.02822,-0.51411 -1.70724,-1.42858 -2.72721,-1.42858"
       inkscape:connector-curvature="0" />
    <text
       xml:space="preserve"
       style="font-size:11px;font-style:normal;font-variant:normal;font-weight:normal;font-stretch:normal;line-height:125%;letter-spacing:0px;word-spacing:0px;fill:#000000;fill-opacity:1;stroke:none;font-family:Arial;-inkscape-font-specification:Arial"
       x="331.42859"
       y="124.50504"
       id="text5583"
       sodipodi:linespacing="125%"><tspan
         sodipodi:role="line"
         id="tspan5585"
         x="331.42859"
         y="124.50504">file</tspan></text>
  </g>
</svg>
